<?xml version="1.0" standalone="no"?>
<!DOCTYPE svg PUBLIC "-//W3C//DTD SVG 20010904//EN"
 "http://www.w3.org/TR/2001/REC-SVG-20010904/DTD/svg10.dtd">
<svg version="1.0" xmlns="http://www.w3.org/2000/svg"
 width="512.000000pt" height="512.000000pt" viewBox="0 0 512.000000 512.000000"
 preserveAspectRatio="xMidYMid meet">
<metadata>
Created by potrace 1.14, written by Peter Selinger 2001-2017
</metadata>
<g transform="translate(0.000000,512.000000) scale(0.100000,-0.100000)"
fill="#000000" stroke="none">
<path d="M2495 4873 c-10 -3 -31 -12 -45 -21 -26 -17 -586 -451 -740 -575 -8
-7 -35 -28 -60 -47 -25 -19 -52 -40 -60 -47 -8 -7 -188 -148 -400 -313 -212
-165 -392 -306 -400 -313 -8 -7 -45 -36 -82 -65 l-67 -53 107 -136 c59 -75
112 -138 117 -140 6 -1 62 38 125 88 63 50 118 93 123 95 4 3 7 -209 7 -470
l0 -476 -159 0 -159 0 -4 70 c-4 77 -21 109 -78 148 -32 21 -41 22 -256 22
l-224 0 0 -1000 0 -1000 224 0 c215 0 224 1 256 22 57 39 74 71 78 149 l4 71
212 -4 c285 -4 249 15 586 -323 190 -189 279 -272 314 -290 157 -79 339 43
322 216 -3 33 -10 68 -16 79 -6 11 -9 20 -7 20 2 0 53 -49 113 -110 121 -121
169 -150 249 -150 90 0 169 53 208 139 15 36 18 57 13 105 -3 33 -13 71 -22
85 -16 24 -15 24 16 -4 18 -16 69 -67 113 -113 96 -97 157 -132 231 -132 159
1 268 161 210 308 -7 17 -11 32 -9 32 1 0 50 -47 107 -105 64 -66 122 -115
152 -130 116 -58 255 -8 307 110 31 71 9 194 -46 249 -15 15 3 16 224 16 l241
0 0 -64 c0 -72 22 -115 79 -153 33 -22 42 -23 257 -23 l224 0 0 1000 0 1000
-224 0 c-215 0 -224 -1 -257 -23 -57 -38 -79 -81 -79 -153 l0 -64 -160 0 -160
0 0 476 c0 380 3 475 13 467 43 -32 204 -160 216 -171 7 -7 18 -11 25 -9 6 2
59 65 119 140 l107 136 -101 80 c-55 44 -163 129 -240 188 l-139 108 0 533 0
532 -320 0 -320 0 -2 -280 -3 -280 -137 108 c-75 59 -222 175 -327 257 -106
83 -207 158 -226 168 -35 19 -133 31 -170 20z m375 -2480 c-72 -11 -115 -41
-230 -155 -37 -38 -73 -68 -79 -68 -6 0 -50 39 -98 86 -88 87 -141 122 -203
135 -19 4 116 7 300 6 184 0 324 -2 310 -4z"/>
</g>
</svg>
